<svg width="265" height="59" viewBox="0 0 265 59" fill="none" xmlns="http://www.w3.org/2000/svg">
<path d="M54.688 48.816H58.592V50H53.232V38.848H54.688V48.816ZM67.1783 45.28C67.1783 45.5573 67.1623 45.8507 67.1302 46.16H60.1223C60.1756 47.024 60.4689 47.7013 61.0023 48.192C61.5463 48.672 62.2023 48.912 62.9703 48.912C63.5996 48.912 64.1223 48.768 64.5383 48.48C64.9649 48.1813 65.2636 47.7867 65.4343 47.296H67.0023C66.7676 48.1387 66.2983 48.8267 65.5943 49.36C64.8903 49.8827 64.0156 50.144 62.9703 50.144C62.1383 50.144 61.3916 49.9573 60.7303 49.584C60.0796 49.2107 59.5676 48.6827 59.1942 48C58.8209 47.3067 58.6342 46.5067 58.6342 45.6C58.6342 44.6933 58.8156 43.8987 59.1783 43.216C59.5409 42.5333 60.0476 42.0107 60.6983 41.648C61.3596 41.2747 62.1169 41.088 62.9703 41.088C63.8023 41.088 64.5383 41.2693 65.1783 41.632C65.8183 41.9947 66.3089 42.496 66.6503 43.136C67.0023 43.7653 67.1783 44.48 67.1783 45.28ZM65.6743 44.976C65.6743 44.4213 65.5516 43.9467 65.3063 43.552C65.0609 43.1467 64.7249 42.8427 64.2983 42.64C63.8823 42.4267 63.4183 42.32 62.9062 42.32C62.1703 42.32 61.5409 42.5547 61.0182 43.024C60.5063 43.4933 60.2129 44.144 60.1383 44.976H65.6743ZM67.5961 45.584C67.5961 44.688 67.7775 43.904 68.1401 43.232C68.5028 42.5493 68.9988 42.0213 69.6281 41.648C70.2681 41.2747 70.9775 41.088 71.7561 41.088C72.5241 41.088 73.1908 41.2533 73.7561 41.584C74.3215 41.9147 74.7428 42.3307 75.0201 42.832V41.232H76.4921V50H75.0201V48.368C74.7321 48.88 74.3001 49.3067 73.7241 49.648C73.1588 49.9787 72.4975 50.144 71.7401 50.144C70.9615 50.144 70.2575 49.952 69.6281 49.568C68.9988 49.184 68.5028 48.6453 68.1401 47.952C67.7775 47.2587 67.5961 46.4693 67.5961 45.584ZM75.0201 45.6C75.0201 44.9387 74.8868 44.3627 74.6201 43.872C74.3535 43.3813 73.9908 43.008 73.5321 42.752C73.0841 42.4853 72.5881 42.352 72.0441 42.352C71.5001 42.352 71.0041 42.48 70.5561 42.736C70.1081 42.992 69.7508 43.3653 69.4841 43.856C69.2175 44.3467 69.0841 44.9227 69.0841 45.584C69.0841 46.256 69.2175 46.8427 69.4841 47.344C69.7508 47.8347 70.1081 48.2133 70.5561 48.48C71.0041 48.736 71.5001 48.864 72.0441 48.864C72.5881 48.864 73.0841 48.736 73.5321 48.48C73.9908 48.2133 74.3535 47.8347 74.6201 47.344C74.8868 46.8427 75.0201 46.2613 75.0201 45.6ZM77.4486 45.584C77.4486 44.688 77.63 43.904 77.9926 43.232C78.3553 42.5493 78.8513 42.0213 79.4806 41.648C80.1206 41.2747 80.8353 41.088 81.6246 41.088C82.3073 41.088 82.942 41.248 83.5286 41.568C84.1153 41.8773 84.5633 42.288 84.8726 42.8V38.16H86.3446V50H84.8726V48.352C84.5846 48.8747 84.158 49.3067 83.5926 49.648C83.0273 49.9787 82.366 50.144 81.6086 50.144C80.83 50.144 80.1206 49.952 79.4806 49.568C78.8513 49.184 78.3553 48.6453 77.9926 47.952C77.63 47.2587 77.4486 46.4693 77.4486 45.584ZM84.8726 45.6C84.8726 44.9387 84.7393 44.3627 84.4726 43.872C84.206 43.3813 83.8433 43.008 83.3846 42.752C82.9366 42.4853 82.4406 42.352 81.8966 42.352C81.3526 42.352 80.8566 42.48 80.4086 42.736C79.9606 42.992 79.6033 43.3653 79.3366 43.856C79.07 44.3467 78.9366 44.9227 78.9366 45.584C78.9366 46.256 79.07 46.8427 79.3366 47.344C79.6033 47.8347 79.9606 48.2133 80.4086 48.48C80.8566 48.736 81.3526 48.864 81.8966 48.864C82.4406 48.864 82.9366 48.736 83.3846 48.48C83.8433 48.2133 84.206 47.8347 84.4726 47.344C84.7393 46.8427 84.8726 46.2613 84.8726 45.6ZM88.5971 39.808C88.3198 39.808 88.0851 39.712 87.8931 39.52C87.7011 39.328 87.6051 39.0933 87.6051 38.816C87.6051 38.5387 87.7011 38.304 87.8931 38.112C88.0851 37.92 88.3198 37.824 88.5971 37.824C88.8638 37.824 89.0878 37.92 89.2691 38.112C89.4611 38.304 89.5571 38.5387 89.5571 38.816C89.5571 39.0933 89.4611 39.328 89.2691 39.52C89.0878 39.712 88.8638 39.808 88.5971 39.808ZM89.3011 41.232V50H87.8451V41.232H89.3011ZM95.0946 41.072C96.1613 41.072 97.0253 41.3973 97.6866 42.048C98.348 42.688 98.6786 43.616 98.6786 44.832V50H97.2386V45.04C97.2386 44.1653 97.02 43.4987 96.5826 43.04C96.1453 42.5707 95.548 42.336 94.7906 42.336C94.0226 42.336 93.4093 42.576 92.9506 43.056C92.5026 43.536 92.2786 44.2347 92.2786 45.152V50H90.8226V41.232H92.2786V42.48C92.5666 42.032 92.956 41.6853 93.4466 41.44C93.948 41.1947 94.4973 41.072 95.0946 41.072ZM103.713 41.088C104.47 41.088 105.132 41.2533 105.697 41.584C106.273 41.9147 106.7 42.3307 106.977 42.832V41.232H108.449V50.192C108.449 50.992 108.278 51.7013 107.937 52.32C107.596 52.9493 107.105 53.44 106.465 53.792C105.836 54.144 105.1 54.32 104.257 54.32C103.105 54.32 102.145 54.048 101.377 53.504C100.609 52.96 100.156 52.2187 100.017 51.28H101.457C101.617 51.8133 101.948 52.24 102.449 52.56C102.95 52.8907 103.553 53.056 104.257 53.056C105.057 53.056 105.708 52.8053 106.209 52.304C106.721 51.8027 106.977 51.0987 106.977 50.192V48.352C106.689 48.864 106.262 49.2907 105.697 49.632C105.132 49.9733 104.47 50.144 103.713 50.144C102.934 50.144 102.225 49.952 101.585 49.568C100.956 49.184 100.46 48.6453 100.097 47.952C99.7343 47.2587 99.553 46.4693 99.553 45.584C99.553 44.688 99.7343 43.904 100.097 43.232C100.46 42.5493 100.956 42.0213 101.585 41.648C102.225 41.2747 102.934 41.088 103.713 41.088ZM106.977 45.6C106.977 44.9387 106.844 44.3627 106.577 43.872C106.31 43.3813 105.948 43.008 105.489 42.752C105.041 42.4853 104.545 42.352 104.001 42.352C103.457 42.352 102.961 42.48 102.513 42.736C102.065 42.992 101.708 43.3653 101.441 43.856C101.174 44.3467 101.041 44.9227 101.041 45.584C101.041 46.256 101.174 46.8427 101.441 47.344C101.708 47.8347 102.065 48.2133 102.513 48.48C102.961 48.736 103.457 48.864 104.001 48.864C104.545 48.864 105.041 48.736 105.489 48.48C105.948 48.2133 106.31 47.8347 106.577 47.344C106.844 46.8427 106.977 46.2613 106.977 45.6ZM114.711 38.848V50H113.255V38.848H114.711ZM123.097 38.848V40.032H120.057V50H118.601V40.032H115.545V38.848H123.097ZM135.235 45.28C135.235 45.5573 135.219 45.8507 135.187 46.16H128.179C128.232 47.024 128.525 47.7013 129.059 48.192C129.603 48.672 130.259 48.912 131.027 48.912C131.656 48.912 132.179 48.768 132.595 48.48C133.021 48.1813 133.32 47.7867 133.491 47.296H135.059C134.824 48.1387 134.355 48.8267 133.651 49.36C132.947 49.8827 132.072 50.144 131.027 50.144C130.195 50.144 129.448 49.9573 128.787 49.584C128.136 49.2107 127.624 48.6827 127.251 48C126.877 47.3067 126.691 46.5067 126.691 45.6C126.691 44.6933 126.872 43.8987 127.235 43.216C127.597 42.5333 128.104 42.0107 128.755 41.648C129.416 41.2747 130.173 41.088 131.027 41.088C131.859 41.088 132.595 41.2693 133.235 41.632C133.875 41.9947 134.365 42.496 134.707 43.136C135.059 43.7653 135.235 44.48 135.235 45.28ZM133.731 44.976C133.731 44.4213 133.608 43.9467 133.363 43.552C133.117 43.1467 132.781 42.8427 132.355 42.64C131.939 42.4267 131.475 42.32 130.963 42.32C130.227 42.32 129.597 42.5547 129.075 43.024C128.563 43.4933 128.269 44.144 128.195 44.976H133.731ZM140.468 41.072C141.535 41.072 142.399 41.3973 143.06 42.048C143.722 42.688 144.052 43.616 144.052 44.832V50H142.612V45.04C142.612 44.1653 142.394 43.4987 141.956 43.04C141.519 42.5707 140.922 42.336 140.164 42.336C139.396 42.336 138.783 42.576 138.324 43.056C137.876 43.536 137.652 44.2347 137.652 45.152V50H136.196V41.232H137.652V42.48C137.94 42.032 138.33 41.6853 138.82 41.44C139.322 41.1947 139.871 41.072 140.468 41.072ZM147.247 42.432V47.6C147.247 48.0267 147.337 48.3307 147.519 48.512C147.7 48.6827 148.015 48.768 148.463 48.768H149.535V50H148.223C147.412 50 146.804 49.8133 146.399 49.44C145.993 49.0667 145.791 48.4533 145.791 47.6V42.432H144.655V41.232H145.791V39.024H147.247V41.232H149.535V42.432H147.247ZM158.339 45.28C158.339 45.5573 158.323 45.8507 158.291 46.16H151.283C151.336 47.024 151.63 47.7013 152.163 48.192C152.707 48.672 153.363 48.912 154.131 48.912C154.76 48.912 155.283 48.768 155.699 48.48C156.126 48.1813 156.424 47.7867 156.595 47.296H158.163C157.928 48.1387 157.459 48.8267 156.755 49.36C156.051 49.8827 155.176 50.144 154.131 50.144C153.299 50.144 152.552 49.9573 151.891 49.584C151.24 49.2107 150.728 48.6827 150.355 48C149.982 47.3067 149.795 46.5067 149.795 45.6C149.795 44.6933 149.976 43.8987 150.339 43.216C150.702 42.5333 151.208 42.0107 151.859 41.648C152.52 41.2747 153.278 41.088 154.131 41.088C154.963 41.088 155.699 41.2693 156.339 41.632C156.979 41.9947 157.47 42.496 157.811 43.136C158.163 43.7653 158.339 44.48 158.339 45.28ZM156.835 44.976C156.835 44.4213 156.712 43.9467 156.467 43.552C156.222 43.1467 155.886 42.8427 155.459 42.64C155.043 42.4267 154.579 42.32 154.067 42.32C153.331 42.32 152.702 42.5547 152.179 43.024C151.667 43.4933 151.374 44.144 151.299 44.976H156.835ZM160.757 42.656C161.013 42.1547 161.375 41.7653 161.845 41.488C162.325 41.2107 162.906 41.072 163.589 41.072V42.576H163.205C161.573 42.576 160.757 43.4613 160.757 45.232V50H159.301V41.232H160.757V42.656ZM165.765 42.848C166.053 42.3467 166.48 41.9307 167.045 41.6C167.621 41.2587 168.288 41.088 169.045 41.088C169.824 41.088 170.528 41.2747 171.157 41.648C171.797 42.0213 172.299 42.5493 172.661 43.232C173.024 43.904 173.205 44.688 173.205 45.584C173.205 46.4693 173.024 47.2587 172.661 47.952C172.299 48.6453 171.797 49.184 171.157 49.568C170.528 49.952 169.824 50.144 169.045 50.144C168.299 50.144 167.637 49.9787 167.061 49.648C166.496 49.3067 166.064 48.8853 165.765 48.384V54.16H164.309V41.232H165.765V42.848ZM171.717 45.584C171.717 44.9227 171.584 44.3467 171.318 43.856C171.051 43.3653 170.688 42.992 170.229 42.736C169.781 42.48 169.285 42.352 168.741 42.352C168.208 42.352 167.712 42.4853 167.253 42.752C166.805 43.008 166.443 43.3867 166.165 43.888C165.899 44.3787 165.765 44.9493 165.765 45.6C165.765 46.2613 165.899 46.8427 166.165 47.344C166.443 47.8347 166.805 48.2133 167.253 48.48C167.712 48.736 168.208 48.864 168.741 48.864C169.285 48.864 169.781 48.736 170.229 48.48C170.688 48.2133 171.051 47.8347 171.318 47.344C171.584 46.8427 171.717 46.256 171.717 45.584ZM175.618 42.656C175.874 42.1547 176.237 41.7653 176.706 41.488C177.186 41.2107 177.767 41.072 178.45 41.072V42.576H178.066C176.434 42.576 175.618 43.4613 175.618 45.232V50H174.162V41.232H175.618V42.656ZM179.923 39.808C179.645 39.808 179.411 39.712 179.219 39.52C179.027 39.328 178.931 39.0933 178.931 38.816C178.931 38.5387 179.027 38.304 179.219 38.112C179.411 37.92 179.645 37.824 179.923 37.824C180.189 37.824 180.413 37.92 180.595 38.112C180.787 38.304 180.883 38.5387 180.883 38.816C180.883 39.0933 180.787 39.328 180.595 39.52C180.413 39.712 180.189 39.808 179.923 39.808ZM180.627 41.232V50H179.171V41.232H180.627ZM185.252 50.144C184.58 50.144 183.978 50.032 183.444 49.808C182.911 49.5733 182.49 49.2533 182.18 48.848C181.871 48.432 181.7 47.9573 181.668 47.424H183.172C183.215 47.8613 183.418 48.2187 183.78 48.496C184.154 48.7733 184.639 48.912 185.236 48.912C185.791 48.912 186.228 48.7893 186.548 48.544C186.868 48.2987 187.028 47.9893 187.028 47.616C187.028 47.232 186.858 46.9493 186.516 46.768C186.175 46.576 185.647 46.3893 184.932 46.208C184.282 46.0373 183.748 45.8667 183.332 45.696C182.927 45.5147 182.575 45.2533 182.276 44.912C181.988 44.56 181.844 44.1013 181.844 43.536C181.844 43.088 181.978 42.6773 182.244 42.304C182.511 41.9307 182.89 41.6373 183.38 41.424C183.871 41.2 184.431 41.088 185.06 41.088C186.031 41.088 186.815 41.3333 187.412 41.824C188.01 42.3147 188.33 42.9867 188.372 43.84H186.916C186.884 43.3813 186.698 43.0133 186.356 42.736C186.026 42.4587 185.578 42.32 185.012 42.32C184.49 42.32 184.074 42.432 183.764 42.656C183.455 42.88 183.3 43.1733 183.3 43.536C183.3 43.824 183.391 44.064 183.572 44.256C183.764 44.4373 183.999 44.5867 184.276 44.704C184.564 44.8107 184.959 44.9333 185.46 45.072C186.09 45.2427 186.602 45.4133 186.996 45.584C187.391 45.744 187.727 45.9893 188.004 46.32C188.292 46.6507 188.442 47.0827 188.452 47.616C188.452 48.096 188.319 48.528 188.052 48.912C187.786 49.296 187.407 49.6 186.916 49.824C186.436 50.0373 185.882 50.144 185.252 50.144ZM197.548 45.28C197.548 45.5573 197.532 45.8507 197.5 46.16H190.492C190.545 47.024 190.838 47.7013 191.372 48.192C191.916 48.672 192.572 48.912 193.34 48.912C193.969 48.912 194.492 48.768 194.908 48.48C195.334 48.1813 195.633 47.7867 195.804 47.296H197.372C197.137 48.1387 196.668 48.8267 195.964 49.36C195.26 49.8827 194.385 50.144 193.34 50.144C192.508 50.144 191.761 49.9573 191.1 49.584C190.449 49.2107 189.937 48.6827 189.564 48C189.19 47.3067 189.004 46.5067 189.004 45.6C189.004 44.6933 189.185 43.8987 189.548 43.216C189.91 42.5333 190.417 42.0107 191.068 41.648C191.729 41.2747 192.486 41.088 193.34 41.088C194.172 41.088 194.908 41.2693 195.548 41.632C196.188 41.9947 196.678 42.496 197.02 43.136C197.372 43.7653 197.548 44.48 197.548 45.28ZM196.044 44.976C196.044 44.4213 195.921 43.9467 195.676 43.552C195.43 43.1467 195.094 42.8427 194.668 42.64C194.252 42.4267 193.788 42.32 193.276 42.32C192.54 42.32 191.91 42.5547 191.388 43.024C190.876 43.4933 190.582 44.144 190.508 44.976H196.044ZM204.919 50.144C204.247 50.144 203.644 50.032 203.111 49.808C202.578 49.5733 202.156 49.2533 201.847 48.848C201.538 48.432 201.367 47.9573 201.335 47.424H202.839C202.882 47.8613 203.084 48.2187 203.447 48.496C203.82 48.7733 204.306 48.912 204.903 48.912C205.458 48.912 205.895 48.7893 206.215 48.544C206.535 48.2987 206.695 47.9893 206.695 47.616C206.695 47.232 206.524 46.9493 206.183 46.768C205.842 46.576 205.314 46.3893 204.599 46.208C203.948 46.0373 203.415 45.8667 202.999 45.696C202.594 45.5147 202.242 45.2533 201.943 44.912C201.655 44.56 201.511 44.1013 201.511 43.536C201.511 43.088 201.644 42.6773 201.911 42.304C202.178 41.9307 202.556 41.6373 203.047 41.424C203.538 41.2 204.098 41.088 204.727 41.088C205.698 41.088 206.482 41.3333 207.079 41.824C207.676 42.3147 207.996 42.9867 208.039 43.84H206.583C206.551 43.3813 206.364 43.0133 206.023 42.736C205.692 42.4587 205.244 42.32 204.679 42.32C204.156 42.32 203.74 42.432 203.431 42.656C203.122 42.88 202.967 43.1733 202.967 43.536C202.967 43.824 203.058 44.064 203.239 44.256C203.431 44.4373 203.666 44.5867 203.943 44.704C204.231 44.8107 204.626 44.9333 205.127 45.072C205.756 45.2427 206.268 45.4133 206.663 45.584C207.058 45.744 207.394 45.9893 207.671 46.32C207.959 46.6507 208.108 47.0827 208.119 47.616C208.119 48.096 207.986 48.528 207.719 48.912C207.452 49.296 207.074 49.6 206.583 49.824C206.103 50.0373 205.548 50.144 204.919 50.144ZM213.038 50.144C212.217 50.144 211.47 49.9573 210.798 49.584C210.137 49.2107 209.614 48.6827 209.23 48C208.857 47.3067 208.67 46.5067 208.67 45.6C208.67 44.704 208.862 43.9147 209.246 43.232C209.641 42.5387 210.174 42.0107 210.846 41.648C211.518 41.2747 212.27 41.088 213.102 41.088C213.934 41.088 214.686 41.2747 215.358 41.648C216.03 42.0107 216.558 42.5333 216.942 43.216C217.337 43.8987 217.534 44.6933 217.534 45.6C217.534 46.5067 217.332 47.3067 216.926 48C216.532 48.6827 215.993 49.2107 215.31 49.584C214.628 49.9573 213.87 50.144 213.038 50.144ZM213.038 48.864C213.561 48.864 214.052 48.7413 214.51 48.496C214.969 48.2507 215.337 47.8827 215.614 47.392C215.902 46.9013 216.046 46.304 216.046 45.6C216.046 44.896 215.908 44.2987 215.63 43.808C215.353 43.3173 214.99 42.9547 214.542 42.72C214.094 42.4747 213.609 42.352 213.086 42.352C212.553 42.352 212.062 42.4747 211.614 42.72C211.177 42.9547 210.825 43.3173 210.558 43.808C210.292 44.2987 210.158 44.896 210.158 45.6C210.158 46.3147 210.286 46.9173 210.542 47.408C210.809 47.8987 211.161 48.2667 211.598 48.512C212.036 48.7467 212.516 48.864 213.038 48.864ZM219.945 38.16V50H218.489V38.16H219.945ZM229.242 41.232V50H227.786V48.704C227.509 49.152 227.12 49.504 226.618 49.76C226.128 50.0053 225.584 50.128 224.986 50.128C224.304 50.128 223.69 49.9893 223.146 49.712C222.602 49.424 222.17 48.9973 221.85 48.432C221.541 47.8667 221.386 47.1787 221.386 46.368V41.232H222.826V46.176C222.826 47.04 223.045 47.7067 223.482 48.176C223.92 48.6347 224.517 48.864 225.274 48.864C226.053 48.864 226.666 48.624 227.114 48.144C227.562 47.664 227.786 46.9653 227.786 46.048V41.232H229.242ZM232.517 42.432V47.6C232.517 48.0267 232.607 48.3307 232.789 48.512C232.97 48.6827 233.285 48.768 233.733 48.768H234.805V50H233.493C232.682 50 232.074 49.8133 231.669 49.44C231.263 49.0667 231.061 48.4533 231.061 47.6V42.432H229.925V41.232H231.061V39.024H232.517V41.232H234.805V42.432H232.517ZM236.361 39.808C236.084 39.808 235.849 39.712 235.657 39.52C235.465 39.328 235.369 39.0933 235.369 38.816C235.369 38.5387 235.465 38.304 235.657 38.112C235.849 37.92 236.084 37.824 236.361 37.824C236.628 37.824 236.852 37.92 237.033 38.112C237.225 38.304 237.321 38.5387 237.321 38.816C237.321 39.0933 237.225 39.328 237.033 39.52C236.852 39.712 236.628 39.808 236.361 39.808ZM237.065 41.232V50H235.609V41.232H237.065ZM242.41 50.144C241.589 50.144 240.842 49.9573 240.17 49.584C239.509 49.2107 238.986 48.6827 238.602 48C238.229 47.3067 238.042 46.5067 238.042 45.6C238.042 44.704 238.234 43.9147 238.618 43.232C239.013 42.5387 239.546 42.0107 240.218 41.648C240.89 41.2747 241.642 41.088 242.474 41.088C243.306 41.088 244.058 41.2747 244.73 41.648C245.402 42.0107 245.93 42.5333 246.314 43.216C246.709 43.8987 246.906 44.6933 246.906 45.6C246.906 46.5067 246.704 47.3067 246.298 48C245.904 48.6827 245.365 49.2107 244.682 49.584C244 49.9573 243.242 50.144 242.41 50.144ZM242.41 48.864C242.933 48.864 243.424 48.7413 243.882 48.496C244.341 48.2507 244.709 47.8827 244.986 47.392C245.274 46.9013 245.418 46.304 245.418 45.6C245.418 44.896 245.28 44.2987 245.002 43.808C244.725 43.3173 244.362 42.9547 243.914 42.72C243.466 42.4747 242.981 42.352 242.458 42.352C241.925 42.352 241.434 42.4747 240.986 42.72C240.549 42.9547 240.197 43.3173 239.93 43.808C239.664 44.2987 239.53 44.896 239.53 45.6C239.53 46.3147 239.658 46.9173 239.914 47.408C240.181 47.8987 240.533 48.2667 240.97 48.512C241.408 48.7467 241.888 48.864 242.41 48.864ZM252.133 41.072C253.199 41.072 254.063 41.3973 254.725 42.048C255.386 42.688 255.717 43.616 255.717 44.832V50H254.277V45.04C254.277 44.1653 254.058 43.4987 253.621 43.04C253.183 42.5707 252.586 42.336 251.829 42.336C251.061 42.336 250.447 42.576 249.989 43.056C249.541 43.536 249.317 44.2347 249.317 45.152V50H247.861V41.232H249.317V42.48C249.605 42.032 249.994 41.6853 250.485 41.44C250.986 41.1947 251.535 41.072 252.133 41.072Z" fill="#83A6C9"/>
<path d="M60.532 31.189C59.146 31.189 57.904 30.964 56.806 30.514C55.708 30.064 54.826 29.398 54.16 28.516C53.512 27.634 53.17 26.572 53.134 25.33H58.048C58.12 26.032 58.363 26.572 58.777 26.95C59.191 27.31 59.731 27.49 60.397 27.49C61.081 27.49 61.621 27.337 62.017 27.031C62.413 26.707 62.611 26.266 62.611 25.708C62.611 25.24 62.449 24.853 62.125 24.547C61.819 24.241 61.432 23.989 60.964 23.791C60.514 23.593 59.866 23.368 59.02 23.116C57.796 22.738 56.797 22.36 56.023 21.982C55.249 21.604 54.583 21.046 54.025 20.308C53.467 19.57 53.188 18.607 53.188 17.419C53.188 15.655 53.827 14.278 55.105 13.288C56.383 12.28 58.048 11.776 60.1 11.776C62.188 11.776 63.871 12.28 65.149 13.288C66.427 14.278 67.111 15.664 67.201 17.446H62.206C62.17 16.834 61.945 16.357 61.531 16.015C61.117 15.655 60.586 15.475 59.938 15.475C59.38 15.475 58.93 15.628 58.588 15.934C58.246 16.222 58.075 16.645 58.075 17.203C58.075 17.815 58.363 18.292 58.939 18.634C59.515 18.976 60.415 19.345 61.639 19.741C62.863 20.155 63.853 20.551 64.609 20.929C65.383 21.307 66.049 21.856 66.607 22.576C67.165 23.296 67.444 24.223 67.444 25.357C67.444 26.437 67.165 27.418 66.607 28.3C66.067 29.182 65.275 29.884 64.231 30.406C63.187 30.928 61.954 31.189 60.532 31.189ZM85.0813 12.046V31H80.4643V23.197H73.2823V31H68.6653V12.046H73.2823V19.471H80.4643V12.046H85.0813ZM91.4114 15.745V19.579H97.5944V23.143H91.4114V27.301H98.4044V31H86.7943V12.046H98.4044V15.745H91.4114ZM109.448 31L105.506 23.845H104.399V31H99.7818V12.046H107.531C109.025 12.046 110.294 12.307 111.338 12.829C112.4 13.351 113.192 14.071 113.714 14.989C114.236 15.889 114.497 16.897 114.497 18.013C114.497 19.273 114.137 20.398 113.417 21.388C112.715 22.378 111.671 23.08 110.285 23.494L114.659 31H109.448ZM104.399 20.578H107.261C108.107 20.578 108.737 20.371 109.151 19.957C109.583 19.543 109.799 18.958 109.799 18.202C109.799 17.482 109.583 16.915 109.151 16.501C108.737 16.087 108.107 15.88 107.261 15.88H104.399V20.578ZM130.22 18.148C130.22 19.246 129.968 20.254 129.464 21.172C128.96 22.072 128.186 22.801 127.142 23.359C126.098 23.917 124.802 24.196 123.254 24.196H120.392V31H115.775V12.046H123.254C124.766 12.046 126.044 12.307 127.088 12.829C128.132 13.351 128.915 14.071 129.437 14.989C129.959 15.907 130.22 16.96 130.22 18.148ZM122.903 20.524C123.785 20.524 124.442 20.317 124.874 19.903C125.306 19.489 125.522 18.904 125.522 18.148C125.522 17.392 125.306 16.807 124.874 16.393C124.442 15.979 123.785 15.772 122.903 15.772H120.392V20.524H122.903ZM142.803 27.652H135.729L134.595 31H129.762L136.62 12.046H141.966L148.824 31H143.937L142.803 27.652ZM141.615 24.088L139.266 17.149L136.944 24.088H141.615ZM167.028 12.046V15.745H162.006V31H157.389V15.745H152.367V12.046H167.028ZM172.342 15.745V19.579H178.525V23.143H172.342V27.301H179.335V31H167.725V12.046H179.335V15.745H172.342ZM179.929 21.496C179.929 19.624 180.334 17.959 181.144 16.501C181.954 15.025 183.079 13.882 184.519 13.072C185.977 12.244 187.624 11.83 189.46 11.83C191.71 11.83 193.636 12.424 195.238 13.612C196.84 14.8 197.911 16.42 198.451 18.472H193.375C192.997 17.68 192.457 17.077 191.755 16.663C191.071 16.249 190.288 16.042 189.406 16.042C187.984 16.042 186.832 16.537 185.95 17.527C185.068 18.517 184.627 19.84 184.627 21.496C184.627 23.152 185.068 24.475 185.95 25.465C186.832 26.455 187.984 26.95 189.406 26.95C190.288 26.95 191.071 26.743 191.755 26.329C192.457 25.915 192.997 25.312 193.375 24.52H198.451C197.911 26.572 196.84 28.192 195.238 29.38C193.636 30.55 191.71 31.135 189.46 31.135C187.624 31.135 185.977 30.73 184.519 29.92C183.079 29.092 181.954 27.949 181.144 26.491C180.334 25.033 179.929 23.368 179.929 21.496ZM216.075 12.046V31H211.458V23.197H204.276V31H199.659V12.046H204.276V19.471H211.458V12.046H216.075Z" fill="#E77E47"/>
<circle cx="8.5" cy="19.5" r="8.5" fill="#4E81B4"/>
<circle cx="36" cy="6" r="4" fill="#4E81B4"/>
<circle cx="23" cy="6" r="6" fill="#4E81B4"/>
<circle cx="28.5" cy="41.5" r="8.5" fill="#83A6C9"/>
<circle cx="4" cy="53" r="3" fill="#83A6C9"/>
<circle cx="16" cy="54" r="5" fill="#83A6C9"/>
</svg>
